<svg width="122" height="90" viewBox="0 0 122 90" fill="none" xmlns="http://www.w3.org/2000/svg">
<path d="M55.5597 0.0800936L18.4832 63.4641H4.94728C-1.1733 62.0424 -0.349374 52.9988 0.827659 48.6547L26.1339 7.18858C29.9004 0.553993 35.9425 -0.314822 38.4927 0.0800936L55.5597 0.0800936Z" fill="#EDF2F4"/>
<path d="M44.9664 23.1827L36.7272 36.2149L62.6219 81.8277C66.8593 87.5145 71.4497 89.3311 73.2152 89.5285H93.2248L59.0908 29.6988C55.3243 22.5903 48.1052 22.3928 44.9664 23.1827Z" fill="#EDF2F4"/>
<path d="M50.8516 66.426H4.94728L13.1865 81.8277C15.5406 86.0928 20.0526 88.7387 22.0143 89.5285H50.8516C57.9138 86.2112 58.11 79.4582 57.3253 76.4963L50.8516 66.426Z" fill="#EDF2F4"/>
<path d="M62.6219 32.0683L70.2727 45.6929H102.053L108.526 32.0683C107.585 26.8554 101.856 23.9725 99.11 23.1827H72.0382C67.3301 23.6566 63.799 29.3039 62.6219 32.0683Z" fill="#EDF2F4"/>
<path d="M110.88 34.4378L87.9282 75.3116L94.4018 87.159C99.5808 90.9502 105.191 87.9489 107.349 85.9743L120.297 64.6488C122.651 58.962 122.062 54.7759 121.474 53.3937L110.88 34.4378Z" fill="#EDF2F4"/>
</svg>
